KRSPY-parametric-WideBlackMaxGrade-minXOPQmaxYOPQmaxXTRA.ufo
<glyph name="comma" format="2">
  <advance width="1000"/>
  <unicode hex="002C"/>
  <outline>
    <contour>
      <point x="798" y="-608" type="line"/>
      <point x="798" y="1" type="line"/>
      <point x="798" y="538" type="line"/>
      <point x="796" y="538" type="line"/>
      <point x="796" y="360" type="line"/>
      <point x="796" y="0" type="line"/>
      <point x="796" y="0" type="line"/>
      <point x="796" y="-608" type="line"/>
    </contour>
  </outline>
</glyph>
<glyph name="three" format="2">
  <advance width="3568"/>
  <unicode hex="0033"/>
  <outline>
    <contour>
      <point x="101" y="0" type="line" identifier="O9abUc1nmN"/>
      <point x="3450" y="0" type="line" identifier="kMJYMTfXCq"/>
      <point x="3450" y="904" type="line" identifier="su2XmdS8e8"/>
      <point x="2238" y="904" type="line" identifier="JQaOzDQqlF"/>
      <point x="2238" y="794" type="line"/>
      <point x="3425" y="1077" type="line" identifier="S91TzLL02W"/>
      <point x="3425" y="1600" type="line" identifier="xg8x2Ki40p"/>
      <point x="103" y="1600" type="line" identifier="pE1XSRiy68"/>
      <point x="103" y="991" type="line" identifier="5lNstGRcSF"/>
      <point x="105" y="991" type="line" identifier="AcE5xKDZfE"/>
      <point x="105" y="1107" type="line" identifier="7ogBYufWpl"/>
      <point x="3423" y="1107" type="line" identifier="RHLvSX2Jv6"/>
      <point x="3423" y="1308" type="line" identifier="YUjTrmoWd9"/>
      <point x="2374" y="1044" type="line"/>
      <point x="2374" y="1044" type="line" identifier="iic1IBkDqp"/>
      <point x="969" y="1044" type="line" identifier="lRLJEhXMlO"/>
      <point x="969" y="551" type="line" identifier="8aKgEELrVU"/>
      <point x="3448" y="551" type="line" identifier="Dm8zjmbhNr"/>
      <point x="3448" y="493" type="line" identifier="xv9CFHiFgB"/>
      <point x="103" y="493" type="line" identifier="YajKQV3MHP"/>
      <point x="103" y="603" type="line" identifier="36SchVkwze"/>
      <point x="101" y="603" type="line" identifier="tVui9PiOjA"/>
    </contour>
  </outline>
</glyph>
<glyph name="four" format="2">
  <advance width="3656"/>
  <unicode hex="0034"/>
  <outline>
    <contour>
      <point x="3118" y="0" type="line"/>
      <point x="3120" y="0" type="line"/>
      <point x="3120" y="482" type="line"/>
      <point x="3509" y="482" type="line"/>
      <point x="3509" y="1013" type="line"/>
      <point x="3120" y="1013" type="line"/>
      <point x="3120" y="1600" type="line"/>
      <point x="3118" y="1600" type="line"/>
      <point x="3118" y="1013" type="line"/>
      <point x="148" y="1013" type="line"/>
      <point x="148" y="1074" type="line"/>
      <point x="550" y="1611" type="line"/>
      <point x="548" y="1611" type="line"/>
      <point x="147" y="1073" type="line"/>
      <point x="147" y="482" type="line"/>
      <point x="3118" y="482" type="line"/>
    </contour>
  </outline>
</glyph>
<glyph name="B" format="2">
  <advance width="3624"/>
  <unicode hex="0042"/>
  <outline>
    <contour>
      <point x="155" y="0" type="line" identifier="hvY9r8RmLr"/>
      <point x="3505" y="0" type="line" identifier="9QFpw7nfq7"/>
      <point x="3505" y="586" type="line" identifier="543PerILpr"/>
      <point x="3168" y="799" type="line" identifier="zhomauHW30"/>
      <point x="3168" y="801" type="line" identifier="870ZhtaozS"/>
      <point x="3430" y="1007" type="line" identifier="eGKH52Jgnk"/>
      <point x="3430" y="1600" type="line" identifier="FaP204GrdB"/>
      <point x="155" y="1600" type="line" identifier="JEev70GAj6"/>
    </contour>
    <contour>
      <point x="156" y="1046" type="line" identifier="By7dfMihfe"/>
      <point x="157" y="1107" type="line" identifier="1p5hKrurVy"/>
      <point x="3428" y="1107" type="line" identifier="Qby8aMtF2X"/>
      <point x="3428" y="1170" type="line" identifier="9lW01gQyU2"/>
      <point x="3302" y="1046" type="line" identifier="xpxyvIzPoc"/>
    </contour>
    <contour>
      <point x="157" y="493" type="line" identifier="jaMSiLrCua"/>
      <point x="157" y="553" type="line" identifier="XSrxNd2axx"/>
      <point x="3166" y="553" type="line" identifier="VyYlzRh5nq"/>
      <point x="3503" y="371" type="line" identifier="lsRGatjQja"/>
      <point x="3503" y="493" type="line" identifier="xhlDJ3CjD5"/>
    </contour>
  </outline>
</glyph>
<glyph name="C" format="2">
  <advance width="3488"/>
  <unicode hex="0043"/>
  <outline>
    <contour>
      <point x="118" y="0" type="line" identifier="7lPhzTnk2Z"/>
      <point x="3388" y="0" type="line" identifier="qJVLZGnkwh"/>
      <point x="3388" y="664" type="line" identifier="nDnDHzAMXL"/>
      <point x="3386" y="664" type="line" identifier="QX1V08aTu0"/>
      <point x="3386" y="531" type="line" identifier="Y750RHTvDj"/>
      <point x="120" y="531" type="line" identifier="L2LsGnXiZ2"/>
      <point x="120" y="870" type="line" identifier="sUWsr03vF4"/>
      <point x="304" y="1069" type="line" identifier="dbOUe6OhxL"/>
      <point x="3385" y="1069" type="line" identifier="5BjRbcud80"/>
      <point x="3385" y="894" type="line" identifier="fNVDqwQo2o"/>
      <point x="3387" y="894" type="line" identifier="wLqQQx7QVN"/>
      <point x="3387" y="1600" type="line" identifier="9eJelv8BOw"/>
      <point x="582" y="1600" type="line" identifier="lfZev3ICaC"/>
      <point x="118" y="1093" type="line" identifier="V1EWIdPahq"/>
    </contour>
  </outline>
</glyph>
<glyph name="M" format="2">
  <advance width="3727"/>
  <unicode hex="004D"/>
  <outline>
    <contour>
      <point x="1715" y="100" type="line" identifier="0Dn4Xpf57M"/>
      <point x="310" y="1069" type="line"/>
      <point x="157" y="1069" type="line"/>
      <point x="157" y="0" type="line"/>
      <point x="155" y="0" type="line"/>
      <point x="155" y="1600" type="line"/>
      <point x="533" y="1600" type="line"/>
      <point x="1819" y="722" type="line"/>
      <point x="1908" y="722" type="line" identifier="9aKZPM0HPh"/>
      <point x="3194" y="1600" type="line"/>
      <point x="3571" y="1600" type="line"/>
      <point x="3571" y="0" type="line"/>
      <point x="3569" y="0" type="line"/>
      <point x="3569" y="1069" type="line"/>
      <point x="3417" y="1069" type="line"/>
      <point x="2012" y="100" type="line" identifier="spdoeeCFft"/>
    </contour>
  </outline>
</glyph>
<glyph name="S" format="2">
  <advance width="3553"/>
  <unicode hex="0053"/>
  <outline>
    <contour>
      <point x="147" y="0" type="line" identifier="09VlJ0BjUX"/>
      <point x="3406" y="0" type="line" identifier="EagWihqFM8"/>
      <point x="3406" y="1045" type="line" identifier="KfNuQA7eZe"/>
      <point x="154" y="1045" type="line" identifier="At364YZFEy"/>
      <point x="154" y="1064" type="line"/>
      <point x="184" y="1107" type="line"/>
      <point x="3404" y="1107" type="line" identifier="3ZUkG35meB"/>
      <point x="3404" y="1079" type="line" identifier="DTOJhFIl15"/>
      <point x="3406" y="1079" type="line" identifier="9KDcrfQ5Ui"/>
      <point x="3406" y="1600" type="line" identifier="SaF9ojRFrW"/>
      <point x="554" y="1600" type="line"/>
      <point x="152" y="1064" type="line"/>
      <point x="152" y="552" type="line" identifier="3sQ8t8BZ6b"/>
      <point x="3404" y="552" type="line" identifier="yiV6OCBLHg"/>
      <point x="3404" y="493" type="line" identifier="9kdl9SYsn8"/>
      <point x="149" y="493" type="line" identifier="yZDWuX8LLe"/>
      <point x="149" y="528" type="line" identifier="jYb9001DTm"/>
      <point x="147" y="528" type="line" identifier="ho4DrS0rdW"/>
    </contour>
  </outline>
</glyph>
<glyph name="U" format="2">
  <advance width="3623"/>
  <unicode hex="0055"/>
  <outline>
    <contour>
      <point x="3465" y="1600" type="line" smooth="yes"/>
      <point x="3465" y="531" type="line"/>
      <point x="300" y="531" type="line" smooth="yes"/>
      <point x="120" y="710" type="line" smooth="yes"/>
      <point x="120" y="1600" type="line"/>
      <point x="118" y="1600" type="line" smooth="yes"/>
      <point x="118" y="498" type="line" smooth="yes"/>
      <point x="583" y="0" type="line" smooth="yes"/>
      <point x="3467" y="0" type="line" smooth="yes"/>
      <point x="3467" y="1600" type="line" smooth="yes"/>
    </contour>
  </outline>
</glyph>
<glyph name="W" format="2">
  <advance width="4815"/>
  <unicode hex="0057"/>
  <outline>
    <contour>
      <point x="157" y="1600" type="line" smooth="yes" identifier="12Pyby1xY2"/>
      <point x="155" y="1600" type="line" smooth="yes" identifier="5LJg4ajoG6"/>
      <point x="155" y="0" type="line" smooth="yes" identifier="ZqTZqAY3uY"/>
      <point x="2004" y="0" type="line" smooth="yes" identifier="rCeQLyjlsN"/>
      <point x="2350" y="181" type="line"/>
      <point x="2354" y="181" type="line"/>
      <point x="2354" y="0" type="line" smooth="yes" identifier="Pkl7cZ37MU"/>
      <point x="4233" y="0" type="line" smooth="yes" identifier="R4lklfJsHA"/>
      <point x="4697" y="498" type="line" smooth="yes" identifier="7g7f8Wu7K4"/>
      <point x="4697" y="1600" type="line" smooth="yes" identifier="RTOJW56qXy"/>
      <point x="4695" y="1600" type="line" identifier="JfSFAkWGZC"/>
      <point x="4695" y="768" type="line" smooth="yes" identifier="WWvGwSpq0g"/>
      <point x="4442" y="531" type="line" smooth="yes" identifier="oee4nqI8Wl"/>
      <point x="2441" y="531" type="line" identifier="Ljn2lpvpG8"/>
      <point x="2441" y="733" type="line"/>
      <point x="2441" y="1482" type="line" smooth="yes"/>
      <point x="2441" y="1482" type="line"/>
      <point x="2439" y="1358" type="line"/>
      <point x="2439" y="733" type="line"/>
      <point x="2038" y="531" type="line" identifier="GlWB6PG54Z"/>
      <point x="157" y="531" type="line" identifier="iqeTRv7HXg"/>
    </contour>
  </outline>
</glyph>
<glyph name="Z" format="2">
  <advance width="3554"/>
  <unicode hex="005A"/>
  <outline>
    <contour>
      <point x="101" y="0" type="line"/>
      <point x="3452" y="0" type="line" identifier="pzdvPTirLJ"/>
      <point x="3452" y="758" type="line" identifier="91SxUS0iwG"/>
      <point x="3450" y="758" type="line"/>
      <point x="3450" y="493" type="line"/>
      <point x="102" y="493" type="line"/>
      <point x="102" y="485" type="line"/>
      <point x="3447" y="937" type="line" identifier="yyb1NCCI5w"/>
      <point x="3447" y="1600" type="line" identifier="5FogYRSgkk"/>
      <point x="104" y="1600" type="line" identifier="svlFvrau4c"/>
      <point x="104" y="859" type="line" identifier="LQ9fBsTy9K"/>
      <point x="106" y="859" type="line"/>
      <point x="106" y="1107" type="line"/>
      <point x="3445" y="1107" type="line"/>
      <point x="3446" y="1188" type="line"/>
      <point x="102" y="736" type="line" identifier="teVKnpBcVb"/>
    </contour>
  </outline>
</glyph>
<glyph name="C.wide" format="2">
  <advance width="3498"/>
  <outline>
    <contour>
      <point x="78" y="0" type="line" identifier="7lPhzTnk2Z"/>
      <point x="3351" y="0" type="line" identifier="qJVLZGnkwh"/>
      <point x="3351" y="600" type="line" identifier="Y750RHTvDj"/>
      <point x="79" y="600" type="line" identifier="L2LsGnXiZ2"/>
      <point x="80" y="771" type="line" identifier="sUWsr03vF4"/>
      <point x="305" y="1000" type="line" identifier="dbOUe6OhxL"/>
      <point x="3350" y="1000" type="line" identifier="5BjRbcud80"/>
      <point x="3350" y="1600" type="line" identifier="9eJelv8BOw"/>
      <point x="541" y="1600" type="line" identifier="lfZev3ICaC"/>
      <point x="78" y="1093" type="line" identifier="V1EWIdPahq"/>
    </contour>
  </outline>
</glyph>
<glyph name="E.wide" format="2">
  <advance width="4082"/>
  <outline>
    <contour>
      <point x="247" y="0" type="line" identifier="fZynkQ4XHB"/>
      <point x="3935" y="0" type="line" identifier="FAQNpgUPxV"/>
      <point x="3935" y="492" type="line" identifier="5cgTYOhATF"/>
      <point x="248" y="492" type="line" identifier="bWs42DaCgU"/>
      <point x="248" y="555" type="line" identifier="VtD2aADJmn"/>
      <point x="3733" y="555" type="line" identifier="PpbsFdHAnS"/>
      <point x="3733" y="1045" type="line" identifier="8WuC5p8Ax5"/>
      <point x="248" y="1045" type="line" identifier="m39IWn9ntA"/>
      <point x="248" y="1109" type="line" identifier="gQ21I4SHQg"/>
      <point x="3934" y="1109" type="line" identifier="eqNb2VTwYs"/>
      <point x="3934" y="1600" type="line" identifier="qYRmo14Il5"/>
      <point x="247" y="1600" type="line" identifier="HmJIcnLWfC"/>
    </contour>
  </outline>
</glyph>
<glyph name="G.wide" format="2">
  <advance width="3566"/>
  <outline>
    <contour>
      <point x="118" y="0" type="line" identifier="7lPhzTnk2Z"/>
      <point x="3467" y="0" type="line" identifier="qJVLZGnkwh"/>
      <point x="3467" y="1038" type="line" identifier="uek1NNj7De"/>
      <point x="3061" y="1038" type="line" identifier="qcvimxjndX"/>
      <point x="3061" y="553" type="line" identifier="EARaY3Su65"/>
      <point x="3465" y="553" type="line" identifier="4m6dHLVhZq"/>
      <point x="3465" y="493" type="line" identifier="Y750RHTvDj"/>
      <point x="119" y="493" type="line" identifier="L2LsGnXiZ2"/>
      <point x="119" y="922" type="line" identifier="sUWsr03vF4"/>
      <point x="311" y="1107" type="line" identifier="dbOUe6OhxL"/>
      <point x="3466" y="1107" type="line" identifier="5BjRbcud80"/>
      <point x="3466" y="1600" type="line" identifier="9eJelv8BOw"/>
      <point x="582" y="1600" type="line" identifier="lfZev3ICaC"/>
      <point x="118" y="1101" type="line" identifier="V1EWIdPahq"/>
    </contour>
  </outline>
</glyph>
<glyph name="I.narrow" format="2">
  <advance width="476"/>
  <outline>
    <contour>
      <point x="239" y="0" type="line" identifier="1m237t4hyw"/>
      <point x="239" y="1600" type="line" identifier="v7N4yg5XNk"/>
      <point x="237" y="1600" type="line" identifier="zfocDyDTCM"/>
      <point x="237" y="0" type="line" identifier="S4rO5KuHiL"/>
    </contour>
  </outline>
</glyph>
<glyph name="K.alt" format="2">
  <advance width="3507"/>
  <outline>
    <contour>
      <point x="80" y="0" type="line" identifier="wmNm7XZsaF"/>
      <point x="80" y="528" type="line" identifier="O22liaP9Qk"/>
      <point x="3000" y="528" type="line" identifier="ELFBWIb1vd"/>
      <point x="3349" y="523" type="line" identifier="DzXo67YEfw"/>
      <point x="3349" y="0" type="line" identifier="aKpYWD78l2"/>
      <point x="3351" y="0" type="line" identifier="ChS7KlqGi6"/>
      <point x="3351" y="1042" type="line" identifier="sWLgkU8Vey"/>
      <point x="2992" y="1047" type="line" identifier="Of0iQc0wBG"/>
      <point x="3085" y="1600" type="line" identifier="dMJ1ywOKQQ"/>
      <point x="3083" y="1600" type="line" identifier="08OWjR2YBJ"/>
      <point x="2991" y="1059" type="line" identifier="g4YLdZEoM3"/>
      <point x="80" y="1059" type="line" identifier="uZuki3Isec"/>
      <point x="80" y="1600" type="line" identifier="nRfcNgqJ4H"/>
      <point x="78" y="1600" type="line" identifier="3XJlWt89ad"/>
      <point x="78" y="0" type="line" identifier="wdbO8kCovY"/>
    </contour>
  </outline>
</glyph>
<glyph name="K.narrow" format="2">
  <advance width="3801"/>
  <outline>
    <contour>
      <point x="249" y="0" type="line"/>
      <point x="249" y="489" type="line"/>
      <point x="3332" y="627" type="line"/>
      <point x="3598" y="0" type="line"/>
      <point x="3600" y="0" type="line"/>
      <point x="3257" y="817" type="line"/>
      <point x="3538" y="831" type="line"/>
      <point x="3538" y="1600" type="line"/>
      <point x="3536" y="1600" type="line"/>
      <point x="3536" y="1167" type="line"/>
      <point x="249" y="1020" type="line"/>
      <point x="249" y="1600" type="line"/>
      <point x="247" y="1600" type="line"/>
      <point x="247" y="0" type="line"/>
    </contour>
  </outline>
</glyph>
<glyph name="L.wide" format="2">
  <advance width="3270"/>
  <outline>
    <contour>
      <point x="155" y="0" type="line" identifier="XkJNfQlnnt"/>
      <point x="3169" y="0" type="line" identifier="82EXZEgt46"/>
      <point x="3169" y="531" type="line" identifier="cqpSxwFiM3"/>
      <point x="157" y="531" type="line" identifier="MbxRZRd8vz"/>
      <point x="157" y="1600" type="line" identifier="lYiaKSKITt"/>
      <point x="155" y="1600" type="line" identifier="XFf4mMUzYo"/>
    </contour>
  </outline>
</glyph>
<glyph name="M.narrow" format="2">
  <advance width="4990"/>
  <outline>
    <contour>
      <point x="4787" y="0" type="line" smooth="yes" identifier="12Pyby1xY2"/>
      <point x="4789" y="0" type="line" smooth="yes" identifier="5LJg4ajoG6"/>
      <point x="4789" y="1600" type="line" smooth="yes" identifier="ZqTZqAY3uY"/>
      <point x="710" y="1600" type="line" smooth="yes" identifier="R4lklfJsHA"/>
      <point x="247" y="1103" type="line" smooth="yes" identifier="7g7f8Wu7K4"/>
      <point x="247" y="0" type="line" smooth="yes" identifier="RTOJW56qXy"/>
      <point x="249" y="0" type="line" identifier="JfSFAkWGZC"/>
      <point x="249" y="833" type="line" smooth="yes" identifier="WWvGwSpq0g"/>
      <point x="502" y="1069" type="line" smooth="yes" identifier="oee4nqI8Wl"/>
      <point x="2503" y="1069" type="line" identifier="Ljn2lpvpG8"/>
      <point x="2503" y="104" type="line" smooth="yes"/>
      <point x="2505" y="104" type="line"/>
      <point x="2505" y="1069" type="line" identifier="GlWB6PG54Z"/>
      <point x="4787" y="1069" type="line" identifier="iqeTRv7HXg"/>
    </contour>
  </outline>
</glyph>
<glyph name="N.narrow" format="2">
  <advance width="3727"/>
  <outline>
    <contour>
      <point x="247" y="86" type="line" smooth="yes"/>
      <point x="249" y="86" type="line"/>
      <point x="249" y="847" type="line"/>
      <point x="649" y="1060" type="line"/>
      <point x="3478" y="1060" type="line"/>
      <point x="3478" y="0" type="line" smooth="yes"/>
      <point x="3480" y="0" type="line" smooth="yes"/>
      <point x="3480" y="1600" type="line" smooth="yes"/>
      <point x="625" y="1600" type="line" smooth="yes"/>
      <point x="337" y="1473" type="line"/>
      <point x="249" y="1473" type="line"/>
      <point x="249" y="1600" type="line"/>
      <point x="247" y="1600" type="line"/>
    </contour>
  </outline>
</glyph>
<glyph name="N.wide" format="2">
  <advance width="3213"/>
  <outline>
    <contour>
      <point x="155" y="0" type="line" identifier="CkwYPPvJLv"/>
      <point x="157" y="0" type="line" identifier="oHTJsN7drZ"/>
      <point x="157" y="941" type="line" identifier="wfBbYd10Pm"/>
      <point x="171" y="941" type="line" identifier="MEnBDHq6zU"/>
      <point x="3040" y="0" type="line" identifier="3Nbopwznvn"/>
      <point x="3058" y="0" type="line" identifier="uKfuudIUvA"/>
      <point x="3058" y="1600" type="line" identifier="XRdLFXiM4t"/>
      <point x="3057" y="1600" type="line" identifier="MUSJPjCIXg"/>
      <point x="3057" y="659" type="line" identifier="VILP20cFmq"/>
      <point x="3040" y="659" type="line" identifier="z5b04GDwRN"/>
      <point x="171" y="1600" type="line" identifier="LL64NQ6WBE"/>
      <point x="155" y="1600" type="line" identifier="dzUaaP1sjt"/>
    </contour>
  </outline>
</glyph>
<glyph name="S.wide" format="2">
  <advance width="3383"/>
  <outline>
    <contour>
      <point x="101" y="0" type="line" identifier="09VlJ0BjUX"/>
      <point x="3282" y="0" type="line" identifier="EagWihqFM8"/>
      <point x="3282" y="1044" type="line" identifier="KfNuQA7eZe"/>
      <point x="107" y="1044" type="line" identifier="At364YZFEy"/>
      <point x="107" y="1069" type="line"/>
      <point x="132" y="1107" type="line"/>
      <point x="3282" y="1107" type="line" identifier="3ZUkG35meB"/>
      <point x="3282" y="1600" type="line" identifier="SaF9ojRFrW"/>
      <point x="503" y="1600" type="line"/>
      <point x="106" y="1069" type="line"/>
      <point x="106" y="556" type="line" identifier="3sQ8t8BZ6b"/>
      <point x="3280" y="556" type="line" identifier="yiV6OCBLHg"/>
      <point x="3280" y="493" type="line" identifier="9kdl9SYsn8"/>
      <point x="101" y="493" type="line" identifier="yZDWuX8LLe"/>
    </contour>
  </outline>
</glyph>
<glyph name="Y.alt" format="2">
  <advance width="3519"/>
  <outline>
    <contour>
      <point x="102" y="493" type="line"/>
      <point x="102" y="0" type="line"/>
      <point x="3364" y="0" type="line" identifier="oOtn61SmRY"/>
      <point x="3364" y="1600" type="line" identifier="8OglXgblhr"/>
      <point x="3362" y="1600" type="line" identifier="db0bPhBdaU"/>
      <point x="3362" y="1113" type="line" identifier="MTAeavIVWY"/>
      <point x="103" y="1113" type="line" identifier="lggLiivmLt"/>
      <point x="103" y="1600" type="line" identifier="UPaHY3UudR"/>
      <point x="101" y="1600" type="line" identifier="ZnCDQVdtyD"/>
      <point x="101" y="620" type="line" identifier="uqAJBjDIOT"/>
      <point x="3362" y="620" type="line" identifier="7JgTtdb0jg"/>
      <point x="3362" y="493" type="line"/>
    </contour>
  </outline>
</glyph>
<glyph name="Z.wide" format="2">
  <advance width="3623"/>
  <outline>
    <contour>
      <point x="101" y="0" type="line"/>
      <point x="3521" y="0" type="line" identifier="pzdvPTirLJ"/>
      <point x="3521" y="492" type="line"/>
      <point x="103" y="492" type="line"/>
      <point x="103" y="654" type="line"/>
      <point x="3512" y="911" type="line" identifier="yyb1NCCI5w"/>
      <point x="3512" y="1600" type="line" identifier="5FogYRSgkk"/>
      <point x="104" y="1600" type="line" identifier="svlFvrau4c"/>
      <point x="104" y="1107" type="line"/>
      <point x="3510" y="1107" type="line"/>
      <point x="3510" y="997" type="line"/>
      <point x="101" y="743" type="line" identifier="teVKnpBcVb"/>
    </contour>
  </outline>
</glyph>
<glyph name="one.narrow" format="2">
  <advance width="1939"/>
  <outline>
    <contour>
      <point x="1784" y="0" type="line" identifier="5nmxQXofSG"/>
      <point x="1784" y="1600" type="line" identifier="4rjIeWbSbx"/>
      <point x="101" y="1600" type="line"/>
      <point x="101" y="1069" type="line"/>
      <point x="1782" y="1069" type="line"/>
      <point x="1782" y="0" type="line"/>
    </contour>
  </outline>
</glyph>
<glyph name="six.wide" format="2">
  <advance width="3505"/>
  <outline>
    <contour>
      <point x="78" y="0" type="line" identifier="uiw6aBUf4P"/>
      <point x="3427" y="0" type="line" identifier="jtYkxiUX6G"/>
      <point x="3427" y="1037" type="line" identifier="2G5L37c87I"/>
      <point x="79" y="1037" type="line"/>
      <point x="79" y="979" type="line"/>
      <point x="260" y="1107" type="line"/>
      <point x="3426" y="1107" type="line"/>
      <point x="3426" y="1600" type="line" identifier="oGvEEuxnYv"/>
      <point x="534" y="1600" type="line" identifier="xR3pEHbMJx"/>
      <point x="78" y="1189" type="line" identifier="KnMArb0tv8"/>
    </contour>
    <contour>
      <point x="3425" y="552" type="line"/>
      <point x="3425" y="493" type="line"/>
      <point x="79" y="493" type="line"/>
      <point x="79" y="552" type="line"/>
    </contour>
  </outline>
</glyph>
<glyph name="three.wide" format="2">
  <advance width="3743"/>
  <outline>
    <contour>
      <point x="147" y="0" type="line" identifier="O9abUc1nmN"/>
      <point x="3496" y="0" type="line" identifier="kMJYMTfXCq"/>
      <point x="3496" y="896" type="line" identifier="su2XmdS8e8"/>
      <point x="2285" y="896" type="line" identifier="JQaOzDQqlF"/>
      <point x="2285" y="785" type="line"/>
      <point x="3488" y="991" type="line" identifier="S91TzLL02W"/>
      <point x="3488" y="1600" type="line" identifier="xg8x2Ki40p"/>
      <point x="149" y="1600" type="line" identifier="pE1XSRiy68"/>
      <point x="149" y="1042" type="line" identifier="7ogBYufWpl"/>
      <point x="3486" y="1042" type="line" identifier="RHLvSX2Jv6"/>
      <point x="3486" y="1160" type="line" identifier="YUjTrmoWd9"/>
      <point x="2420" y="961" type="line"/>
      <point x="2420" y="961" type="line" identifier="iic1IBkDqp"/>
      <point x="757" y="961" type="line" identifier="lRLJEhXMlO"/>
      <point x="757" y="633" type="line" identifier="8aKgEELrVU"/>
      <point x="3494" y="633" type="line" identifier="Dm8zjmbhNr"/>
      <point x="3494" y="557" type="line" identifier="xv9CFHiFgB"/>
      <point x="147" y="557" type="line" identifier="YajKQV3MHP"/>
    </contour>
  </outline>
</glyph>
